<svg width="117" height="19" viewBox="0 0 117 19" fill="none" xmlns="http://www.w3.org/2000/svg">
<path d="M16.5568 9.27273C16.5568 11.1761 16.196 12.7955 15.4744 14.1307C14.7585 15.4659 13.7813 16.4858 12.5426 17.1903C11.3097 17.8892 9.9233 18.2386 8.38352 18.2386C6.83239 18.2386 5.44034 17.8864 4.20739 17.1818C2.97443 16.4773 2 15.4574 1.28409 14.1222C0.568182 12.7869 0.210227 11.1705 0.210227 9.27273C0.210227 7.36932 0.568182 5.75 1.28409 4.41477C2 3.07955 2.97443 2.0625 4.20739 1.36364C5.44034 0.659091 6.83239 0.306818 8.38352 0.306818C9.9233 0.306818 11.3097 0.659091 12.5426 1.36364C13.7813 2.0625 14.7585 3.07955 15.4744 4.41477C16.196 5.75 16.5568 7.36932 16.5568 9.27273ZM12.8153 9.27273C12.8153 8.03977 12.6307 7 12.2614 6.15341C11.8977 5.30682 11.3835 4.66477 10.7188 4.22727C10.054 3.78977 9.27557 3.57102 8.38352 3.57102C7.49148 3.57102 6.71307 3.78977 6.0483 4.22727C5.38352 4.66477 4.86648 5.30682 4.49716 6.15341C4.13352 7 3.9517 8.03977 3.9517 9.27273C3.9517 10.5057 4.13352 11.5455 4.49716 12.392C4.86648 13.2386 5.38352 13.8807 6.0483 14.3182C6.71307 14.7557 7.49148 14.9744 8.38352 14.9744C9.27557 14.9744 10.054 14.7557 10.7188 14.3182C11.3835 13.8807 11.8977 13.2386 12.2614 12.392C12.6307 11.5455 12.8153 10.5057 12.8153 9.27273ZM24.0462 18.2131C23.0518 18.2131 22.1513 17.9574 21.3445 17.446C20.5433 16.929 19.907 16.1705 19.4354 15.1705C18.9695 14.1648 18.7365 12.9318 18.7365 11.4716C18.7365 9.97159 18.978 8.72443 19.4609 7.73011C19.9439 6.73011 20.5859 5.98295 21.3871 5.48864C22.1939 4.98864 23.0774 4.73864 24.0376 4.73864C24.7706 4.73864 25.3814 4.86364 25.87 5.11364C26.3643 5.35795 26.7621 5.66477 27.0632 6.03409C27.37 6.39773 27.603 6.75568 27.7621 7.10795H27.8729V0.545454H31.495V18H27.9155V15.9034H27.7621C27.5916 16.267 27.3501 16.6278 27.0376 16.9858C26.7308 17.3381 26.3303 17.6307 25.8359 17.8636C25.3473 18.0966 24.7507 18.2131 24.0462 18.2131ZM25.1967 15.3239C25.782 15.3239 26.2763 15.1648 26.6797 14.8466C27.0888 14.5227 27.4013 14.071 27.6172 13.4915C27.8388 12.9119 27.9496 12.233 27.9496 11.4545C27.9496 10.6761 27.8416 10 27.6257 9.42614C27.4098 8.85227 27.0973 8.40909 26.6882 8.09659C26.2791 7.78409 25.782 7.62784 25.1967 7.62784C24.6001 7.62784 24.0973 7.78977 23.6882 8.11364C23.2791 8.4375 22.9695 8.88636 22.7592 9.46023C22.549 10.0341 22.4439 10.6989 22.4439 11.4545C22.4439 12.2159 22.549 12.8892 22.7592 13.4744C22.9751 14.054 23.2848 14.5085 23.6882 14.8381C24.0973 15.1619 24.6001 15.3239 25.1967 15.3239ZM40.446 18.2557C39.0994 18.2557 37.9403 17.983 36.9688 17.4375C36.0028 16.8864 35.2585 16.108 34.7358 15.1023C34.2131 14.0909 33.9517 12.8949 33.9517 11.5142C33.9517 10.1676 34.2131 8.9858 34.7358 7.96875C35.2585 6.9517 35.9943 6.15909 36.9432 5.59091C37.8977 5.02273 39.017 4.73864 40.3011 4.73864C41.1648 4.73864 41.9688 4.87784 42.7131 5.15625C43.4631 5.42898 44.1165 5.84091 44.6733 6.39205C45.2358 6.94318 45.6733 7.63636 45.9858 8.47159C46.2983 9.30114 46.4545 10.2727 46.4545 11.3864V12.3835H35.4006V10.1335H43.0369C43.0369 9.6108 42.9233 9.14773 42.696 8.74432C42.4688 8.34091 42.1534 8.02557 41.75 7.7983C41.3523 7.56534 40.8892 7.44886 40.3608 7.44886C39.8097 7.44886 39.321 7.5767 38.8949 7.83239C38.4744 8.08239 38.1449 8.42045 37.9062 8.84659C37.6676 9.26705 37.5455 9.7358 37.5398 10.2528V12.392C37.5398 13.0398 37.6591 13.5994 37.8977 14.071C38.142 14.5426 38.4858 14.9062 38.929 15.1619C39.3722 15.4176 39.8977 15.5455 40.5057 15.5455C40.9091 15.5455 41.2784 15.4886 41.6136 15.375C41.9489 15.2614 42.2358 15.0909 42.4744 14.8636C42.7131 14.6364 42.8949 14.358 43.0199 14.0284L46.3778 14.25C46.2074 15.0568 45.858 15.7614 45.3295 16.3636C44.8068 16.9602 44.1307 17.4261 43.3011 17.7614C42.4773 18.0909 41.5256 18.2557 40.446 18.2557ZM52.5568 18.2472C51.7216 18.2472 50.9773 18.1023 50.3239 17.8125C49.6705 17.517 49.1534 17.0824 48.7727 16.5085C48.3977 15.929 48.2102 15.2074 48.2102 14.3438C48.2102 13.6165 48.3438 13.0057 48.6108 12.5114C48.8778 12.017 49.2415 11.6193 49.7017 11.3182C50.1619 11.017 50.6847 10.7898 51.2699 10.6364C51.8608 10.483 52.4801 10.375 53.1278 10.3125C53.8892 10.233 54.5028 10.1591 54.9688 10.0909C55.4347 10.017 55.7727 9.90909 55.983 9.76705C56.1932 9.625 56.2983 9.41477 56.2983 9.13636V9.08523C56.2983 8.54545 56.1278 8.12784 55.7869 7.83239C55.4517 7.53693 54.9744 7.3892 54.3551 7.3892C53.7017 7.3892 53.1818 7.53409 52.7955 7.82386C52.4091 8.10795 52.1534 8.46591 52.0284 8.89773L48.6705 8.625C48.8409 7.82955 49.1761 7.14205 49.6761 6.5625C50.1761 5.97727 50.821 5.52841 51.6108 5.21591C52.4063 4.89773 53.3267 4.73864 54.3722 4.73864C55.0994 4.73864 55.7955 4.82386 56.4602 4.99432C57.1307 5.16477 57.7244 5.42898 58.2415 5.78693C58.7642 6.14489 59.1761 6.60511 59.4773 7.16761C59.7784 7.72443 59.929 8.39205 59.929 9.17045V18H56.4858V16.1847H56.3835C56.1733 16.5938 55.892 16.9545 55.5398 17.267C55.1875 17.5739 54.7642 17.8153 54.2699 17.9915C53.7756 18.1619 53.2045 18.2472 52.5568 18.2472ZM53.5966 15.7415C54.1307 15.7415 54.6023 15.6364 55.0114 15.4261C55.4205 15.2102 55.7415 14.9205 55.9744 14.5568C56.2074 14.1932 56.3239 13.7812 56.3239 13.321V11.9318C56.2102 12.0057 56.054 12.0739 55.8551 12.1364C55.6619 12.1932 55.4432 12.2472 55.1989 12.2983C54.9545 12.3437 54.7102 12.3864 54.4659 12.4261C54.2216 12.4602 54 12.4915 53.8011 12.5199C53.375 12.5824 53.0028 12.6818 52.6847 12.8182C52.3665 12.9545 52.1193 13.1392 51.9432 13.3722C51.767 13.5994 51.679 13.8835 51.679 14.2244C51.679 14.7188 51.858 15.0966 52.2159 15.358C52.5795 15.6136 53.0398 15.7415 53.5966 15.7415ZM62.8139 18V0.545454H66.5043V14.9574H73.9872V18H62.8139ZM80.0959 18.2472C79.2607 18.2472 78.5163 18.1023 77.8629 17.8125C77.2095 17.517 76.6925 17.0824 76.3118 16.5085C75.9368 15.929 75.7493 15.2074 75.7493 14.3438C75.7493 13.6165 75.8828 13.0057 76.1499 12.5114C76.4169 12.017 76.7805 11.6193 77.2408 11.3182C77.701 11.017 78.2237 10.7898 78.8089 10.6364C79.3999 10.483 80.0192 10.375 80.6669 10.3125C81.4283 10.233 82.0419 10.1591 82.5078 10.0909C82.9737 10.017 83.3118 9.90909 83.522 9.76705C83.7322 9.625 83.8374 9.41477 83.8374 9.13636V9.08523C83.8374 8.54545 83.6669 8.12784 83.326 7.83239C82.9908 7.53693 82.5135 7.3892 81.8942 7.3892C81.2408 7.3892 80.7209 7.53409 80.3345 7.82386C79.9482 8.10795 79.6925 8.46591 79.5675 8.89773L76.2095 8.625C76.38 7.82955 76.7152 7.14205 77.2152 6.5625C77.7152 5.97727 78.3601 5.52841 79.1499 5.21591C79.9453 4.89773 80.8658 4.73864 81.9112 4.73864C82.6385 4.73864 83.3345 4.82386 83.9993 4.99432C84.6697 5.16477 85.2635 5.42898 85.7805 5.78693C86.3033 6.14489 86.7152 6.60511 87.0163 7.16761C87.3175 7.72443 87.468 8.39205 87.468 9.17045V18H84.0249V16.1847H83.9226C83.7124 16.5938 83.4311 16.9545 83.0788 17.267C82.7266 17.5739 82.3033 17.8153 81.8089 17.9915C81.3146 18.1619 80.7436 18.2472 80.0959 18.2472ZM81.1357 15.7415C81.6697 15.7415 82.1413 15.6364 82.5504 15.4261C82.9595 15.2102 83.2805 14.9205 83.5135 14.5568C83.7464 14.1932 83.8629 13.7812 83.8629 13.321V11.9318C83.7493 12.0057 83.593 12.0739 83.3942 12.1364C83.201 12.1932 82.9822 12.2472 82.7379 12.2983C82.4936 12.3437 82.2493 12.3864 82.005 12.4261C81.7607 12.4602 81.5391 12.4915 81.3402 12.5199C80.9141 12.5824 80.5419 12.6818 80.2237 12.8182C79.9055 12.9545 79.6584 13.1392 79.4822 13.3722C79.3061 13.5994 79.218 13.8835 79.218 14.2244C79.218 14.7188 79.397 15.0966 79.755 15.358C80.1186 15.6136 80.5788 15.7415 81.1357 15.7415ZM90.353 18V0.545454H93.9837V7.10795H94.0945C94.2536 6.75568 94.4837 6.39773 94.7848 6.03409C95.0916 5.66477 95.4893 5.35795 95.978 5.11364C96.4723 4.86364 97.0859 4.73864 97.8189 4.73864C98.7734 4.73864 99.6541 4.98864 100.461 5.48864C101.268 5.98295 101.913 6.73011 102.396 7.73011C102.879 8.72443 103.12 9.97159 103.12 11.4716C103.12 12.9318 102.884 14.1648 102.413 15.1705C101.947 16.1705 101.31 16.929 100.504 17.446C99.7024 17.9574 98.8047 18.2131 97.8104 18.2131C97.1058 18.2131 96.5064 18.0966 96.0121 17.8636C95.5234 17.6307 95.1229 17.3381 94.8104 16.9858C94.4979 16.6278 94.2592 16.267 94.0945 15.9034H93.9325V18H90.353ZM93.907 11.4545C93.907 12.233 94.0149 12.9119 94.2308 13.4915C94.4467 14.071 94.7592 14.5227 95.1683 14.8466C95.5774 15.1648 96.0746 15.3239 96.6598 15.3239C97.2507 15.3239 97.7507 15.1619 98.1598 14.8381C98.5689 14.5085 98.8786 14.054 99.0888 13.4744C99.3047 12.8892 99.4126 12.2159 99.4126 11.4545C99.4126 10.6989 99.3075 10.0341 99.0973 9.46023C98.8871 8.88636 98.5774 8.4375 98.1683 8.11364C97.7592 7.78977 97.2564 7.62784 96.6598 7.62784C96.0689 7.62784 95.5689 7.78409 95.1598 8.09659C94.7564 8.40909 94.4467 8.85227 94.2308 9.42614C94.0149 10 93.907 10.6761 93.907 11.4545ZM116.435 8.64205L113.111 8.84659C113.054 8.5625 112.932 8.30682 112.744 8.07955C112.557 7.84659 112.31 7.66193 112.003 7.52557C111.702 7.38352 111.341 7.3125 110.92 7.3125C110.358 7.3125 109.884 7.43182 109.497 7.67045C109.111 7.90341 108.918 8.21591 108.918 8.60795C108.918 8.92045 109.043 9.18466 109.293 9.40057C109.543 9.61648 109.972 9.78977 110.58 9.92045L112.949 10.3977C114.222 10.6591 115.17 11.0795 115.795 11.6591C116.42 12.2386 116.733 13 116.733 13.9432C116.733 14.8011 116.48 15.554 115.974 16.2017C115.474 16.8494 114.787 17.3551 113.912 17.7188C113.043 18.0767 112.04 18.2557 110.903 18.2557C109.17 18.2557 107.79 17.8949 106.761 17.1733C105.739 16.446 105.139 15.4574 104.963 14.2074L108.534 14.0199C108.642 14.5483 108.903 14.9517 109.318 15.2301C109.733 15.5028 110.264 15.6392 110.912 15.6392C111.548 15.6392 112.06 15.517 112.446 15.2727C112.838 15.0227 113.037 14.7017 113.043 14.3097C113.037 13.9801 112.898 13.7102 112.625 13.5C112.352 13.2841 111.932 13.1193 111.364 13.0057L109.097 12.554C107.818 12.2983 106.866 11.8551 106.241 11.2244C105.622 10.5937 105.312 9.78977 105.312 8.8125C105.312 7.97159 105.54 7.24716 105.994 6.6392C106.455 6.03125 107.099 5.5625 107.929 5.23295C108.764 4.90341 109.741 4.73864 110.861 4.73864C112.514 4.73864 113.815 5.08807 114.764 5.78693C115.719 6.4858 116.276 7.4375 116.435 8.64205Z" fill="white"/>
</svg>
